<!DOCTYPE svg PUBLIC "-//W3C//DTD SVG 1.1//EN" "http://www.w3.org/Graphics/SVG/1.1/DTD/svg11.dtd">
<!-- Uploaded to: SVG Repo, www.svgrepo.com, Transformed by: SVG Repo Mixer Tools -->
<svg version="1.1" id="Layer_1" xmlns="http://www.w3.org/2000/svg" xmlns:xlink="http://www.w3.org/1999/xlink" viewBox="0 0 512.00 512.00" xml:space="preserve" width="64px" height="64px" fill="#000000" stroke="#000000" transform="rotate(0)matrix(1, 0, 0, 1, 0, 0)">
<g id="SVGRepo_bgCarrier" stroke-width="0"/>
<g id="SVGRepo_tracerCarrier" stroke-linecap="round" stroke-linejoin="round" stroke="#CCCCCC" stroke-width="1.0240019999999999"/>
<g id="SVGRepo_iconCarrier"> <path style="fill:#6C00FF;" d="M332.803,10.449H95.726c-22.275,0-40.334,18.06-40.334,40.335v410.434 c0,22.276,18.059,40.334,40.334,40.334h320.546c22.275,0,40.334-18.059,40.334-40.334V134.253L332.803,10.449z"/> <path style="fill:#3C79F5;" d="M373.139,134.253h83.467L332.806,10.451v83.47C332.803,116.195,350.861,134.253,373.139,134.253z"/> <rect x="135.116" y="219.502" style="fill:#FFFFFF;" width="241.758" height="142.44"/> <path d="M463.996,126.864L340.192,3.061C338.232,1.101,335.574,0,332.803,0H95.726C67.725,0,44.944,22.782,44.944,50.784v410.434 c0,28.001,22.781,50.783,50.783,50.783h320.546c28.001,0,50.783-22.781,50.783-50.783V134.253 C467.056,131.482,465.955,128.824,463.996,126.864z M343.255,35.678l88.126,88.126h-58.242c-7.984,0-15.49-3.109-21.134-8.753 c-5.643-5.643-8.752-13.148-8.751-21.131V35.678H343.255z M416.274,491.102H95.726c-16.479,0-29.885-13.406-29.885-29.885V50.784 c0.001-16.479,13.407-29.886,29.885-29.886h226.631v73.021c-0.002,13.565,5.28,26.318,14.872,35.909 c9.591,9.592,22.345,14.874,35.911,14.874h73.019v316.515C446.158,477.696,432.752,491.102,416.274,491.102z"/> <path d="M376.882,209.049H135.119c-5.771,0-10.449,4.678-10.449,10.449V361.94c0,5.771,4.678,10.449,10.449,10.449h241.763 c5.771,0,10.449-4.678,10.449-10.449V219.498C387.331,213.728,382.652,209.049,376.882,209.049z M145.568,277.416h99.983v26.606 h-99.984v-26.606H145.568z M266.449,277.416h99.984v26.606h-99.984V277.416z M366.433,256.518h-99.984v-26.572h99.984V256.518z M245.551,229.947v26.572h-99.984v-26.572L245.551,229.947L245.551,229.947z M145.568,324.92h99.983v26.572h-99.984V324.92H145.568z M266.449,351.492V324.92h99.984v26.572H266.449z"/> <path d="M139.796,392.86h-4.678c-5.771,0-10.449,4.678-10.449,10.449c0,5.771,4.678,10.449,10.449,10.449h4.678 c5.771,0,10.449-4.678,10.449-10.449C150.245,397.539,145.567,392.86,139.796,392.86z"/> <path d="M275.091,392.86H173.599c-5.771,0-10.449,4.678-10.449,10.449c0,5.771,4.678,10.449,10.449,10.449h101.492 c5.771,0,10.449-4.678,10.449-10.449C285.54,397.539,280.862,392.86,275.091,392.86z"/> </g>
</svg>